<?xml version="1.0" standalone="no"?>
<!DOCTYPE svg PUBLIC "-//W3C//DTD SVG 20010904//EN"
 "http://www.w3.org/TR/2001/REC-SVG-20010904/DTD/svg10.dtd">
<svg version="1.0" xmlns="http://www.w3.org/2000/svg"
 width="400.000000pt" height="340.000000pt" viewBox="0 0 400.000000 340.000000"
 preserveAspectRatio="xMidYMid meet">

<g transform="translate(0.000000,340.000000) scale(0.100000,-0.100000)"
fill="#000000" stroke="none">
<path d="M843 2535 c-27 -19 -49 -75 -57 -147 -6 -49 -5 -58 8 -58 9 0 25 -9
36 -20 16 -16 20 -33 20 -91 0 -67 1 -70 23 -67 32 4 68 83 74 161 7 81 -12
169 -44 207 -29 34 -31 35 -60 15z"/>
<path d="M1090 2355 c0 -13 30 -15 221 -15 172 0 220 3 217 13 -4 9 -59 13
-221 15 -189 2 -217 0 -217 -13z"/>
<path d="M2557 2193 c-11 -11 -8 -141 4 -148 13 -9 168 -9 177 -1 3 3 -5 40
-18 81 l-24 75 -66 0 c-37 0 -70 -3 -73 -7z m128 -43 c3 -5 1 -10 -4 -10 -6 0
-11 5 -11 10 0 6 2 10 4 10 3 0 8 -4 11 -10z m-28 -72 c-3 -8 -6 -5 -6 6 -1
11 2 17 5 13 3 -3 4 -12 1 -19z"/>
<path d="M950 2105 c0 -23 -5 -35 -14 -35 -22 0 -66 -40 -66 -61 0 -16 7 -19
40 -19 60 0 75 -30 75 -145 0 -126 -13 -145 -98 -146 l-62 0 38 -16 c21 -8 36
-21 34 -27 -6 -15 -22 -12 -84 13 l-53 21 -11 -21 c-6 -11 -9 -22 -7 -23 2 -2
30 -12 63 -23 l60 -20 5 -139 6 -139 2 153 c1 102 5 151 12 147 6 -4 9 -3 8 2
-1 4 3 18 10 29 6 12 8 24 5 28 -3 3 -1 6 5 6 9 0 12 -47 12 -169 0 -168 0
-170 -22 -173 -13 -3 12 -6 55 -9 l77 -4 0 327 c0 376 -4 397 -68 398 -13 0
-20 4 -17 10 3 6 31 10 61 10 49 0 59 -3 82 -30 l26 -30 163 0 c156 0 162 1
177 22 9 12 16 39 16 60 l0 38 -265 0 -265 0 0 -35z m-18 -75 c-3 -24 -9 -30
-28 -30 -30 0 -31 24 -2 44 31 22 35 20 30 -14z m85 -10 c9 -19 13 -109 13
-347 l0 -323 -40 0 -40 0 0 165 c0 155 1 168 22 195 30 42 38 181 13 245 -9
25 -21 45 -26 45 -5 0 -9 12 -9 26 0 22 4 25 27 22 17 -2 32 -12 40 -28z"/>
<path d="M1012 1890 c0 -14 2 -19 5 -12 2 6 2 18 0 25 -3 6 -5 1 -5 -13z"/>
<path d="M1012 1800 c0 -14 2 -19 5 -12 2 6 2 18 0 25 -3 6 -5 1 -5 -13z"/>
<path d="M1108 1870 c-2 -22 0 -40 5 -40 4 0 17 -16 28 -35 12 -19 25 -35 29
-35 4 0 17 16 29 35 11 19 27 35 36 35 9 0 25 -16 36 -35 12 -19 25 -35 29
-35 4 0 17 16 29 35 11 19 27 35 36 35 9 0 25 -16 36 -35 12 -19 25 -35 30
-35 5 0 19 16 30 35 12 19 25 35 31 35 5 0 8 17 6 38 l-3 37 -191 3 -192 2 -4
-40z"/>
<path d="M1108 1735 l4 -75 191 2 192 3 3 73 c2 39 -1 72 -5 72 -4 0 -16 -14
-25 -30 -22 -39 -53 -39 -73 0 -20 38 -35 38 -57 0 -22 -39 -53 -39 -73 0 -9
17 -22 30 -30 30 -8 0 -21 -13 -30 -30 -20 -39 -51 -39 -73 0 -9 16 -19 30
-22 30 -3 0 -4 -34 -2 -75z"/>
<path d="M780 1720 c0 -5 5 -10 11 -10 5 0 7 5 4 10 -3 6 -8 10 -11 10 -2 0
-4 -4 -4 -10z"/>
<path d="M1560 1654 c0 -20 4 -25 16 -20 9 3 19 6 24 6 4 0 6 9 3 20 -8 31
-43 26 -43 -6z"/>
<path d="M717 1589 c-4 -13 -5 -24 -4 -25 1 -1 30 -9 64 -17 54 -12 63 -12 67
0 10 26 7 29 -46 43 -29 7 -58 15 -64 17 -6 2 -14 -6 -17 -18z"/>
<path d="M1583 1602 c-17 -2 -23 -10 -23 -28 0 -22 3 -24 28 -18 35 9 37 11
26 32 -6 11 -18 16 -31 14z"/>
<path d="M1593 1524 c-25 -10 -33 -20 -33 -39 0 -30 -2 -29 47 -7 35 15 39 20
32 40 -5 12 -10 22 -11 21 -2 0 -18 -7 -35 -15z"/>
<path d="M700 1499 c0 -26 3 -29 34 -29 18 0 48 -3 65 -6 27 -6 31 -4 31 15 0
14 -8 22 -27 26 -16 4 -45 10 -65 15 -37 8 -38 7 -38 -21z"/>
<path d="M1608 1444 c-36 -18 -48 -30 -48 -48 0 -12 3 -25 6 -28 3 -3 29 10
59 29 47 30 53 38 44 54 -5 11 -11 19 -12 19 -1 -1 -23 -12 -49 -26z"/>
<path d="M690 1413 c0 -30 8 -33 73 -26 46 5 57 9 57 24 0 14 -11 18 -65 21
-61 3 -65 2 -65 -19z"/>
<path d="M1643 1370 c-52 -37 -52 -38 -33 -55 19 -17 21 -16 65 19 48 40 52
48 33 63 -9 7 -29 -1 -65 -27z"/>
<path d="M2164 1376 c-12 -31 1 -51 34 -54 31 -3 32 -2 32 32 0 33 -2 36 -30
36 -17 0 -33 -6 -36 -14z"/>
<path d="M2264 1376 c-12 -31 1 -51 34 -54 31 -3 32 -2 32 32 0 33 -2 36 -30
36 -17 0 -33 -6 -36 -14z"/>
<path d="M2364 1376 c-12 -31 1 -51 34 -54 31 -3 32 -2 32 32 0 33 -2 36 -30
36 -17 0 -33 -6 -36 -14z"/>
<path d="M2510 1355 c0 -33 2 -35 35 -35 33 0 35 2 35 35 0 33 -2 35 -35 35
-33 0 -35 -2 -35 -35z"/>
<path d="M2610 1355 c0 -33 2 -35 35 -35 33 0 35 2 35 35 0 33 -2 35 -35 35
-33 0 -35 -2 -35 -35z"/>
<path d="M2710 1355 c0 -33 2 -35 35 -35 33 0 35 2 35 35 0 33 -2 35 -35 35
-33 0 -35 -2 -35 -35z"/>
<path d="M819 1356 c-2 -3 -31 -6 -62 -7 -54 -2 -58 -4 -53 -23 3 -12 6 -23 6
-27 0 -3 27 -1 60 5 53 9 60 12 60 33 0 23 -3 27 -11 19z"/>
<path d="M1700 1310 c-44 -37 -44 -39 -27 -58 18 -20 19 -20 59 24 36 39 39
47 27 59 -12 12 -20 8 -59 -25z"/>
<path d="M893 1265 c0 -33 2 -45 4 -27 2 18 2 45 0 60 -2 15 -4 0 -4 -33z"/>
<path d="M920 1312 c11 -5 15 -23 15 -64 0 -44 -3 -54 -12 -46 -18 15 -16 2 3
-16 14 -15 13 -16 -8 -17 -13 0 -52 -14 -88 -32 -75 -37 -90 -67 -67 -134 13
-37 12 -41 -40 -145 -29 -59 -53 -111 -52 -115 0 -5 25 40 54 99 l55 107 35
-20 c45 -27 65 -19 65 23 0 25 -6 36 -22 43 -13 6 -27 25 -32 44 -8 30 -7 36
13 52 33 27 51 24 52 -8 1 -17 3 -21 6 -10 5 18 18 23 27 8 4 -5 0 -12 -6 -14
-8 -3 -6 -6 5 -6 9 -1 17 -5 17 -11 0 -5 -24 -11 -52 -12 l-53 -2 48 -3 c31
-3 47 -9 47 -18 0 -7 13 -23 29 -34 l30 -21 13 35 c9 27 17 35 30 32 10 -3 16
-1 12 4 -3 5 -11 9 -17 9 -9 0 -11 37 -9 140 l4 140 -59 -1 c-32 0 -51 -3 -43
-7z m90 -114 l0 -113 -20 33 c-11 17 -24 32 -30 32 -6 0 -10 33 -10 80 l0 80
30 0 30 0 0 -112z"/>
<path d="M1765 1264 c-16 -24 -34 -44 -38 -44 -5 0 -5 -4 -2 -10 3 -5 10 -10
14 -10 13 0 73 92 64 101 -4 4 -21 -12 -38 -37z"/>
<path d="M777 1271 c-50 -13 -56 -18 -51 -36 4 -11 8 -21 9 -23 7 -8 115 32
115 42 -1 27 -16 31 -73 17z"/>
<path d="M1865 1281 c-11 -5 -37 -34 -58 -64 -46 -67 -44 -100 9 -147 29 -25
43 -30 83 -30 l49 0 -11 30 c-9 22 -18 30 -37 30 -46 0 -77 41 -61 83 22 58
102 48 124 -15 4 -11 17 -18 32 -18 21 0 25 5 25 29 0 40 -43 88 -88 101 -42
11 -41 11 -67 1z"/>
<path d="M808 1194 c-67 -34 -60 -50 7 -17 30 15 55 31 55 35 0 12 -11 9 -62
-18z"/>
<path d="M2130 1060 l0 -110 168 2 167 3 0 105 0 105 -167 3 -168 2 0 -110z
m235 61 c3 -5 1 -12 -5 -16 -5 -3 -10 1 -10 9 0 18 6 21 15 7z m95 -7 c0 -2
-19 -4 -42 -3 -31 0 -37 3 -24 8 18 7 66 3 66 -5z m-270 -54 c0 -5 -2 -10 -4
-10 -3 0 -8 5 -11 10 -3 6 -1 10 4 10 6 0 11 -4 11 -10z m167 -62 c-3 -8 -6
-5 -6 6 -1 11 2 17 5 13 3 -3 4 -12 1 -19z m60 0 c-3 -8 -6 -5 -6 6 -1 11 2
17 5 13 3 -3 4 -12 1 -19z"/>
<path d="M2504 1157 c-3 -8 -3 -56 -2 -108 l3 -94 165 0 165 0 3 108 3 107
-166 0 c-128 0 -167 -3 -171 -13z m94 -44 c-15 -2 -42 -2 -60 0 -18 2 -6 4 27
4 33 0 48 -2 33 -4z"/>
<path d="M1245 620 l45 -90 -220 0 -220 0 -28 51 c-58 109 -63 114 -116 117
-76 5 -92 -11 -18 -18 l63 -5 39 -72 39 -73 -134 0 -135 0 -25 -50 c-14 -27
-23 -50 -20 -50 2 0 14 18 25 40 l20 40 370 0 370 0 20 -40 c11 -21 20 -42 20
-45 0 -3 -190 -5 -422 -5 l-423 -1 65 -59 65 -60 585 0 585 0 58 51 c31 28 57
54 57 57 0 4 -124 6 -275 4 l-275 -3 -75 151 c-41 82 -77 150 -80 150 -3 0 15
-40 40 -90z"/>
</g>
</svg>
